<svg xmlns="http://www.w3.org/2000/svg" xmlns:xlink="http://www.w3.org/1999/xlink" x="0px" y="0px"
	 width="15.281px" height="19.656px" viewBox="0 0 15.281 19.656" enable-background="new 0 0 15.281 19.656" xml:space="preserve">
<path fill="none" stroke="#ffffff" stroke-miterlimit="10" d="M13.641,17.283c0,0.551-0.435,0.999-0.971,0.999H2.612
	c-0.536,0-0.971-0.447-0.971-0.999V5.676c0-0.551,0.435-0.999,0.971-0.999h10.057c0.536,0,0.971,0.447,0.971,0.999V17.283z"/>
<path fill="none" stroke="#ffffff" stroke-miterlimit="10" d="M10.778,4.677c0-0.006,0.002-0.012,0.002-0.018
	c0-1.865-1.406-3.378-3.139-3.378S4.501,2.793,4.501,4.659c0,0.006,0.002,0.012,0.002,0.018H10.778z"/>
<line fill="none" stroke="#ffffff" stroke-linecap="round" stroke-miterlimit="10" x1="5.911" y1="7.01" x2="9.37" y2="7.01"/>
</svg>
