<svg xmlns="http://www.w3.org/2000/svg" xmlns:xlink="http://www.w3.org/1999/xlink" x="0px" y="0px"
	 width="15.917px" height="16.031px" viewBox="0 0 15.917 16.031" enable-background="new 0 0 15.917 16.031" xml:space="preserve">
<g>
	<path fill="#ffffff" d="M15.53,6.563c0,1.68-0.596,3.115-1.787,4.307s-2.627,1.787-4.307,1.787c-1.426,0-2.705-0.449-3.838-1.348
		l-4.014,4.014c-0.117,0.137-0.269,0.205-0.454,0.205c-0.186,0-0.342-0.063-0.469-0.19c-0.127-0.127-0.19-0.283-0.19-0.469
		s0.068-0.337,0.205-0.454L4.69,10.4C3.791,9.268,3.342,7.988,3.342,6.563c0-1.68,0.596-3.115,1.788-4.307
		c1.191-1.191,2.627-1.787,4.307-1.787s3.115,0.596,4.307,1.787C14.934,3.447,15.53,4.883,15.53,6.563z M14.592,6.563
		c0-1.426-0.504-2.642-1.51-3.647s-2.221-1.509-3.646-1.509S6.794,1.909,5.788,2.915S4.279,5.137,4.279,6.563
		s0.502,2.642,1.508,3.647s2.223,1.509,3.648,1.509s2.641-0.503,3.646-1.509S14.592,7.988,14.592,6.563z"/>
</g>
</svg>
